<?xml version="1.0" standalone="no"?>
<!DOCTYPE svg PUBLIC "-//W3C//DTD SVG 20010904//EN"
 "http://www.w3.org/TR/2001/REC-SVG-20010904/DTD/svg10.dtd">
<svg version="1.0" xmlns="http://www.w3.org/2000/svg"
 width="260.000000pt" height="260.000000pt" viewBox="0 0 260.000000 260.000000"
 preserveAspectRatio="xMidYMid meet">
<metadata>
Created by potrace 1.14, written by Peter Selinger 2001-2017
</metadata>
<g transform="translate(0.000000,260.000000) scale(0.100000,-0.100000)"
fill="#000000" stroke="none">
<path d="M1240 2495 c-7 -8 -16 -13 -20 -10 -5 3 -15 -4 -23 -15 -7 -11 -16
-17 -19 -15 -3 3 -22 -4 -41 -15 -20 -12 -42 -18 -48 -14 -8 4 -9 3 -5 -4 4
-7 3 -12 -3 -12 -5 0 -37 -16 -71 -37 -59 -35 -119 -100 -165 -180 -11 -18
-23 -33 -28 -33 -4 0 -5 -4 -2 -10 3 -5 1 -10 -5 -10 -6 0 -9 -4 -6 -9 3 -5
-1 -12 -10 -15 -8 -3 -13 -10 -10 -14 10 -16 -48 -67 -79 -71 -16 -2 -41 -13
-55 -25 -27 -23 -29 -25 -37 -56 -4 -14 -12 -19 -29 -17 -13 1 -27 7 -31 12
-4 4 -2 5 5 1 17 -10 15 12 -2 30 -8 8 -13 23 -11 34 2 11 0 20 -5 20 -5 0 -7
12 -6 28 5 36 -18 103 -43 123 -25 21 -73 13 -90 -14 -19 -30 -30 -74 -21 -83
9 -10 29 -71 36 -109 4 -25 3 -26 -11 -11 -9 9 -23 16 -31 16 -8 0 -18 8 -22
19 -4 10 -22 35 -40 56 -26 29 -40 37 -67 37 -56 0 -83 -39 -76 -114 1 -15 71
-107 71 -93 0 3 7 0 15 -9 8 -8 15 -19 15 -25 0 -6 5 -11 12 -11 6 0 8 -3 5
-7 -4 -3 -3 -11 3 -17 7 -10 15 -33 33 -111 1 -5 5 -14 8 -20 7 -13 5 -23 -9
-58 -7 -16 -12 -31 -12 -34 0 -3 -12 -21 -26 -40 -25 -34 -26 -35 -7 -56 10
-12 20 -24 23 -27 10 -9 5 -31 -10 -40 -8 -5 -12 -10 -8 -10 5 0 -8 -21 -27
-46 -19 -25 -35 -52 -35 -60 0 -8 -5 -14 -11 -14 -5 0 -7 -5 -4 -10 4 -6 3
-16 -3 -23 -5 -7 -9 -33 -8 -60 1 -26 -1 -47 -4 -47 -8 0 -6 -54 3 -67 4 -7
14 -10 22 -6 8 3 15 0 15 -7 0 -6 5 -8 11 -4 7 4 10 -3 8 -17 -1 -13 1 -31 4
-39 3 -8 8 -35 10 -59 3 -24 9 -47 14 -50 4 -3 14 -18 22 -33 13 -25 23 -32
36 -25 2 1 10 -6 18 -17 11 -15 14 -51 8 -119 -1 -4 -12 -5 -26 -3 -14 3 -25
0 -25 -5 0 -5 -7 -9 -16 -9 -9 0 -23 -8 -31 -17 -8 -10 -12 -12 -8 -6 7 15
-11 18 -20 3 -4 -6 -9 -8 -13 -6 -4 2 -12 -2 -19 -9 -23 -25 38 -53 62 -29 8
9 15 11 15 5 0 -6 3 -10 8 -10 4 1 15 1 25 0 21 -1 23 -21 2 -21 -8 0 -15 4
-15 8 0 5 -7 9 -15 9 -26 0 -16 -15 14 -22 16 -3 34 -12 39 -18 11 -15 12 -48
0 -41 -4 3 -9 0 -9 -5 -1 -6 -2 -15 -3 -20 0 -5 -5 -13 -10 -18 -5 -5 -6 -2
-1 7 5 10 5 12 -3 5 -6 -5 -12 -17 -14 -25 -2 -8 -9 -21 -16 -28 -15 -16 -16
-32 -1 -32 5 0 8 4 5 8 -3 5 1 9 9 9 11 0 12 -4 3 -14 -16 -20 -7 -23 37 -13
44 11 141 22 195 24 19 1 38 6 42 11 5 7 8 6 8 0 0 -6 12 -10 28 -9 41 2 49
-10 44 -65 -3 -40 0 -53 16 -68 37 -33 51 -43 62 -43 5 0 10 -4 10 -8 0 -4 10
-8 22 -9 11 -1 24 -6 27 -11 5 -7 36 -23 51 -26 3 -1 20 -8 38 -15 29 -12 35
-12 44 0 8 11 9 10 4 -3 -4 -15 3 -19 37 -25 23 -4 45 -6 50 -5 4 1 7 -2 7 -7
0 -6 8 -8 18 -6 9 1 34 -3 55 -10 20 -7 40 -9 42 -4 3 4 17 4 31 -1 49 -19
336 -12 369 9 6 3 21 6 35 7 14 1 39 7 55 14 17 7 36 12 43 11 6 -1 12 3 12 9
0 6 4 9 9 5 5 -3 13 0 16 6 4 5 13 8 20 5 7 -2 16 2 19 10 3 8 12 14 21 14 8
0 15 4 15 10 0 5 7 7 15 4 8 -4 15 -2 15 3 0 5 15 17 33 28 37 21 78 65 71 76
-2 4 0 10 6 14 7 4 6 13 -1 27 -8 16 -8 19 1 13 9 -6 9 -3 1 13 -9 18 -7 20
20 24 37 6 184 1 219 -7 14 -3 39 -7 55 -10 43 -6 74 -13 83 -19 4 -2 14 -1
21 3 10 7 7 19 -12 56 -14 26 -36 59 -49 74 -24 27 -30 63 -14 78 5 5 7 1 3
-9 -7 -19 11 -25 28 -9 6 4 32 14 58 21 50 13 70 36 46 50 -7 5 -17 6 -21 4
-4 -3 -8 -1 -8 4 0 9 -27 21 -60 26 -8 2 -26 6 -39 10 -18 6 -21 10 -10 17 9
5 9 9 2 9 -8 0 -6 21 7 70 10 39 19 73 19 75 1 3 2 6 2 8 1 1 2 13 3 27 1 14
4 30 8 35 3 6 9 42 13 80 3 39 9 88 12 110 3 22 6 55 7 73 0 17 4 32 8 32 5 0
4 9 -2 20 -6 10 -9 57 -7 103 3 76 7 90 37 138 28 42 35 65 38 116 5 68 7 66
-59 63 -26 -1 -45 6 -69 27 -70 58 -94 83 -87 89 4 4 7 2 7 -4 0 -7 5 -12 11
-12 5 0 8 4 5 8 -3 5 20 9 52 10 74 1 110 15 123 49 15 38 5 183 -13 194 -7 5
-9 9 -4 9 12 0 -33 39 -64 54 -28 14 -88 13 -118 -3 -11 -6 -22 -8 -24 -5 -3
2 -18 -2 -34 -11 -16 -8 -35 -15 -41 -15 -7 0 -13 -5 -13 -11 0 -5 -4 -7 -10
-4 -5 3 -10 1 -10 -4 0 -6 -6 -11 -14 -11 -7 0 -25 -11 -39 -24 l-26 -24 -38
31 c-20 18 -44 39 -53 48 -9 8 -22 13 -28 11 -7 -2 -12 1 -12 7 0 6 -7 11 -15
11 -9 0 -18 7 -21 15 -4 8 -10 12 -15 9 -5 -3 -9 1 -9 9 0 7 -10 22 -22 33
-13 11 -52 53 -88 93 -61 68 -158 138 -204 147 -11 2 -23 9 -26 15 -4 6 -10 9
-13 7 -4 -1 -17 6 -29 17 -36 32 -92 55 -100 42 -5 -8 -11 -7 -21 1 -11 10
-17 9 -27 -3z m-972 -440 c-3 -3 -9 2 -12 12 -6 14 -5 15 5 6 7 -7 10 -15 7
-18z m40 -30 c-3 -3 -9 2 -12 12 -6 14 -5 15 5 6 7 -7 10 -15 7 -18z m8 -497
c4 -6 3 -8 -4 -4 -5 3 -13 0 -15 -6 -3 -8 -6 -6 -6 5 -1 19 14 23 25 5z m28
-653 c-5 -12 -10 -13 -20 -4 -19 15 -18 19 6 19 13 0 18 -5 14 -15z m26 -179
c0 -2 -9 -6 -20 -9 -11 -3 -20 -1 -20 4 0 5 9 9 20 9 11 0 20 -2 20 -4z m1936
-68 c4 -7 4 -10 -1 -6 -4 4 -17 2 -29 -4 -19 -10 -20 -10 -7 5 16 20 27 21 37
5z m-1941 -28 c3 -6 -1 -7 -9 -4 -18 7 -21 14 -7 14 6 0 13 -4 16 -10z m1889
-86 c5 -14 4 -15 -9 -4 -17 14 -19 20 -6 20 5 0 12 -7 15 -16z"/>
</g>
</svg>
